<?xml version="1.0" standalone="no"?>
<!DOCTYPE svg PUBLIC "-//W3C//DTD SVG 20010904//EN"
 "http://www.w3.org/TR/2001/REC-SVG-20010904/DTD/svg10.dtd">
<svg version="1.0" xmlns="http://www.w3.org/2000/svg"
 width="1024.000000pt" height="1024.000000pt" viewBox="0 0 1024.000000 1024.000000"
 preserveAspectRatio="xMidYMid meet">
<metadata>
Created by potrace 1.14, written by Peter Selinger 2001-2017
</metadata>
<g transform="translate(0.000000,1024.000000) scale(0.100000,-0.100000)"
fill="#000000" stroke="none">
<path d="M2039 10236 c-2 -2 -33 -7 -69 -10 -36 -4 -74 -9 -85 -11 -11 -3 -36
-7 -55 -10 -117 -17 -311 -72 -441 -125 -129 -53 -288 -138 -404 -215 -363
-242 -666 -616 -826 -1018 -23 -56 -67 -186 -74 -215 -3 -9 -12 -44 -20 -77
-20 -78 -44 -213 -53 -295 -9 -86 -9 -6208 0 -6283 78 -612 349 -1103 823
-1493 216 -177 575 -356 830 -414 28 -7 59 -14 70 -16 32 -8 165 -32 225 -41
71 -10 6211 -11 6308 0 40 4 78 10 85 12 7 2 31 6 53 9 69 8 213 45 324 83
228 77 420 178 635 335 69 50 239 208 315 294 81 91 230 292 230 310 0 3 8 18
19 32 96 138 241 511 266 687 2 11 8 47 14 80 6 33 15 87 19 120 9 78 9 6198
0 6291 -4 39 -10 77 -13 85 -2 8 -6 30 -9 49 -2 19 -9 58 -16 85 -6 28 -14 64
-17 80 -3 17 -9 38 -14 48 -5 9 -8 17 -5 17 6 0 -42 141 -80 235 -30 76 -128
271 -148 295 -7 8 -15 22 -18 30 -6 16 -127 187 -162 228 -286 340 -622 572
-1019 707 -106 35 -276 77 -372 90 -27 4 -61 9 -75 13 -27 6 -6234 15 -6241 8z"/>
</g>
</svg>
